{
    "asset" : {
        "generator" : "Khronos glTF Blender I/O v1.2.75",
        "version" : "2.0"
    },
    "extensionsUsed" : [
        "KHR_lights_punctual"
    ],
    "extensionsRequired" : [
        "KHR_lights_punctual"
    ],
    "extensions" : {
        "KHR_lights_punctual" : {
            "lights" : [
                {
                    "color" : [
                        1,
                        1,
                        1
                    ],
                    "intensity" : 2,
                    "type" : "directional",
                    "name" : "Light"
                }
            ]
        }
    },
    "scene" : 0,
    "scenes" : [
        {
            "extras" : {
                "glTF2ExportSettings" : {
                    "export_animations" : 0,
                    "export_apply" : 1,
                    "export_cameras" : 1,
                    "export_extras" : 1,
                    "export_format" : "GLTF_EMBEDDED",
                    "export_image_format" : "JPEG",
                    "export_lights" : 1,
                    "export_morph" : 0,
                    "export_skins" : 0,
                    "export_tangents" : 1
                }
            },
            "name" : "Scene",
            "nodes" : [
                0,
                1,
                3,
                5,
                6
            ]
        }
    ],
    "nodes" : [
        {
            "extras" : {},
            "mesh" : 0,
            "name" : "Tree",
            "rotation" : [
                0,
                -0.17459768056869507,
                0,
                0.9846398830413818
            ],
            "translation" : [
                -11.311115264892578,
                0,
                -8.07936954498291
            ]
        },
        {
            "extras" : {},
            "mesh" : 1,
            "name" : "Tank"
        },
        {
            "extensions" : {
                "KHR_lights_punctual" : {
                    "light" : 0
                }
            },
            "name" : "Light_Orientation",
            "rotation" : [
                -0.7071067690849304,
                0,
                0,
                0.7071067690849304
            ]
        },
        {
            "children" : [
                2
            ],
            "extras" : {},
            "name" : "Light",
            "rotation" : [
                0.16532912850379944,
                0.6772611141204834,
                -0.4555310606956482,
                0.5536019206047058
            ],
            "translation" : [
                4.076245307922363,
                5.903861999511719,
                -1.0054539442062378
            ]
        },
        {
            "camera" : 0,
            "name" : "Camera_Orientation",
            "rotation" : [
                -0.7071067690849304,
                0,
                0,
                0.7071067690849304
            ]
        },
        {
            "children" : [
                4
            ],
            "extras" : {},
            "name" : "Camera",
            "rotation" : [
                0.483536034822464,
                0.33687159419059753,
                -0.20870360732078552,
                0.7804827094078064
            ],
            "translation" : [
                7.358891487121582,
                4.958309173583984,
                6.925790786743164
            ]
        },
        {
            "extras" : {},
            "mesh" : 2,
            "name" : "Grid"
        }
    ],
    "cameras" : [
        {
            "name" : "Camera",
            "perspective" : {
                "yfov" : 0.6280287869355033,
                "zfar" : 1000,
                "znear" : 0.10000000149011612
            },
            "type" : "perspective"
        }
    ],
    "materials" : [
        {
            "doubleSided" : true,
            "emissiveFactor" : [
                0,
                0,
                0
            ],
            "name" : "M_Tree",
            "pbrMetallicRoughness" : {
                "baseColorFactor" : [
                    0.8000000715255737,
                    0.41522422432899475,
                    0.08956564217805862,
                    1
                ],
                "metallicFactor" : 0,
                "roughnessFactor" : 0.8939393758773804
            }
        },
        {
            "doubleSided" : true,
            "emissiveFactor" : [
                0,
                0,
                0
            ],
            "name" : "M_Body",
            "pbrMetallicRoughness" : {
                "baseColorFactor" : [
                    0.5243681073188782,
                    0.8000000715255737,
                    0.20660065114498138,
                    1
                ],
                "metallicFactor" : 0.9090909361839294,
                "roughnessFactor" : 0.8383837938308716
            }
        },
        {
            "doubleSided" : true,
            "emissiveFactor" : [
                0,
                0,
                0
            ],
            "name" : "M_Towar",
            "pbrMetallicRoughness" : {
                "baseColorFactor" : [
                    0.05762525647878647,
                    0.054572802037000656,
                    0.059252142906188965,
                    1
                ],
                "metallicFactor" : 0.868686854839325,
                "roughnessFactor" : 0.7323232293128967
            }
        },
        {
            "doubleSided" : true,
            "emissiveFactor" : [
                0,
                0,
                0
            ],
            "name" : "M_Spin",
            "pbrMetallicRoughness" : {
                "baseColorFactor" : [
                    0.800000011920929,
                    0.800000011920929,
                    0.800000011920929,
                    1
                ],
                "metallicFactor" : 1,
                "roughnessFactor" : 0.6717171669006348
            }
        },
        {
            "doubleSided" : true,
            "emissiveFactor" : [
                0,
                0,
                0
            ],
            "name" : "Material.001",
            "pbrMetallicRoughness" : {
                "baseColorFactor" : [
                    0.46235525608062744,
                    0.1548519730567932,
                    0.018651604652404785,
                    1
                ],
                "metallicFactor" : 0,
                "roughnessFactor" : 0.9040403962135315
            }
        }
    ],
    "meshes" : [
        {
            "name" : "Plane.003",
            "primitives" : [
                {
                    "attributes" : {
                        "POSITION" : 0,
                        "NORMAL" : 1,
                        "TANGENT" : 2,
                        "TEXCOORD_0" : 3
                    },
                    "indices" : 4,
                    "material" : 0
                }
            ]
        },
        {
            "name" : "Cube",
            "primitives" : [
                {
                    "attributes" : {
                        "POSITION" : 5,
                        "NORMAL" : 6,
                        "TANGENT" : 7,
                        "TEXCOORD_0" : 8
                    },
                    "indices" : 9,
                    "material" : 1
                },
                {
                    "attributes" : {
                        "POSITION" : 10,
                        "NORMAL" : 11,
                        "TANGENT" : 12,
                        "TEXCOORD_0" : 13
                    },
                    "indices" : 14,
                    "material" : 2
                },
                {
                    "attributes" : {
                        "POSITION" : 15,
                        "NORMAL" : 16,
                        "TANGENT" : 17,
                        "TEXCOORD_0" : 18
                    },
                    "indices" : 19,
                    "material" : 3
                }
            ]
        },
        {
            "name" : "Grid",
            "primitives" : [
                {
                    "attributes" : {
                        "POSITION" : 20,
                        "NORMAL" : 21,
                        "TANGENT" : 22,
                        "TEXCOORD_0" : 23
                    },
                    "indices" : 24,
                    "material" : 4
                }
            ]
        }
    ],
    "accessors" : [
        {
            "bufferView" : 0,
            "componentType" : 5126,
            "count" : 1566,
            "max" : [
                0.2388010323047638,
                9.550983428955078,
                3.4806084632873535
            ],
            "min" : [
                -0.2388010323047638,
                -0.0033135090488940477,
                -5.610774040222168
            ],
            "type" : "VEC3"
        },
        {
            "bufferView" : 1,
            "componentType" : 5126,
            "count" : 1566,
            "type" : "VEC3"
        },
        {
            "bufferView" : 2,
            "componentType" : 5126,
            "count" : 1566,
            "type" : "VEC4"
        },
        {
            "bufferView" : 3,
            "componentType" : 5126,
            "count" : 1566,
            "type" : "VEC2"
        },
        {
            "bufferView" : 4,
            "componentType" : 5123,
            "count" : 2328,
            "type" : "SCALAR"
        },
        {
            "bufferView" : 5,
            "componentType" : 5126,
            "count" : 536,
            "max" : [
                3.5511834621429443,
                2.0710904598236084,
                2.175968885421753
            ],
            "min" : [
                -3.5511834621429443,
                0.007785320281982422,
                -2.175968885421753
            ],
            "type" : "VEC3"
        },
        {
            "bufferView" : 6,
            "componentType" : 5126,
            "count" : 536,
            "type" : "VEC3"
        },
        {
            "bufferView" : 7,
            "componentType" : 5126,
            "count" : 536,
            "type" : "VEC4"
        },
        {
            "bufferView" : 8,
            "componentType" : 5126,
            "count" : 536,
            "type" : "VEC2"
        },
        {
            "bufferView" : 9,
            "componentType" : 5123,
            "count" : 864,
            "type" : "SCALAR"
        },
        {
            "bufferView" : 10,
            "componentType" : 5126,
            "count" : 488,
            "max" : [
                1,
                3.4816994667053223,
                1.349644422531128
            ],
            "min" : [
                -1.1057826280593872,
                2.0710904598236084,
                -1.349644422531128
            ],
            "type" : "VEC3"
        },
        {
            "bufferView" : 11,
            "componentType" : 5126,
            "count" : 488,
            "type" : "VEC3"
        },
        {
            "bufferView" : 12,
            "componentType" : 5126,
            "count" : 488,
            "type" : "VEC4"
        },
        {
            "bufferView" : 13,
            "componentType" : 5126,
            "count" : 488,
            "type" : "VEC2"
        },
        {
            "bufferView" : 14,
            "componentType" : 5123,
            "count" : 864,
            "type" : "SCALAR"
        },
        {
            "bufferView" : 15,
            "componentType" : 5126,
            "count" : 114,
            "max" : [
                5.869307041168213,
                2.8121678829193115,
                0.7304345369338989
            ],
            "min" : [
                1,
                2.367908239364624,
                -0.7304345369338989
            ],
            "type" : "VEC3"
        },
        {
            "bufferView" : 16,
            "componentType" : 5126,
            "count" : 114,
            "type" : "VEC3"
        },
        {
            "bufferView" : 17,
            "componentType" : 5126,
            "count" : 114,
            "type" : "VEC4"
        },
        {
            "bufferView" : 18,
            "componentType" : 5126,
            "count" : 114,
            "type" : "VEC2"
        },
        {
            "bufferView" : 19,
            "componentType" : 5123,
            "count" : 288,
            "type" : "SCALAR"
        },
        {
            "bufferView" : 20,
            "componentType" : 5126,
            "count" : 10199,
            "max" : [
                50,
                0,
                50
            ],
            "min" : [
                -50,
                0,
                -50
            ],
            "type" : "VEC3"
        },
        {
            "bufferView" : 21,
            "componentType" : 5126,
            "count" : 10199,
            "type" : "VEC3"
        },
        {
            "bufferView" : 22,
            "componentType" : 5126,
            "count" : 10199,
            "type" : "VEC4"
        },
        {
            "bufferView" : 23,
            "componentType" : 5126,
            "count" : 10199,
            "type" : "VEC2"
        },
        {
            "bufferView" : 24,
            "componentType" : 5123,
            "count" : 58806,
            "type" : "SCALAR"
        }
    ],
    "bufferViews" : [
        {
            "buffer" : 0,
            "byteLength" : 18792,
            "byteOffset" : 0
        },
        {
            "buffer" : 0,
            "byteLength" : 18792,
            "byteOffset" : 18792
        },
        {
            "buffer" : 0,
            "byteLength" : 25056,
            "byteOffset" : 37584
        },
        {
            "buffer" : 0,
            "byteLength" : 12528,
            "byteOffset" : 62640
        },
        {
            "buffer" : 0,
            "byteLength" : 4656,
            "byteOffset" : 75168
        },
        {
            "buffer" : 0,
            "byteLength" : 6432,
            "byteOffset" : 79824
        },
        {
            "buffer" : 0,
            "byteLength" : 6432,
            "byteOffset" : 86256
        },
        {
            "buffer" : 0,
            "byteLength" : 8576,
            "byteOffset" : 92688
        },
        {
            "buffer" : 0,
            "byteLength" : 4288,
            "byteOffset" : 101264
        },
        {
            "buffer" : 0,
            "byteLength" : 1728,
            "byteOffset" : 105552
        },
        {
            "buffer" : 0,
            "byteLength" : 5856,
            "byteOffset" : 107280
        },
        {
            "buffer" : 0,
            "byteLength" : 5856,
            "byteOffset" : 113136
        },
        {
            "buffer" : 0,
            "byteLength" : 7808,
            "byteOffset" : 118992
        },
        {
            "buffer" : 0,
            "byteLength" : 3904,
            "byteOffset" : 126800
        },
        {
            "buffer" : 0,
            "byteLength" : 1728,
            "byteOffset" : 130704
        },
        {
            "buffer" : 0,
            "byteLength" : 1368,
            "byteOffset" : 132432
        },
        {
            "buffer" : 0,
            "byteLength" : 1368,
            "byteOffset" : 133800
        },
        {
            "buffer" : 0,
            "byteLength" : 1824,
            "byteOffset" : 135168
        },
        {
            "buffer" : 0,
            "byteLength" : 912,
            "byteOffset" : 136992
        },
        {
            "buffer" : 0,
            "byteLength" : 576,
            "byteOffset" : 137904
        },
        {
            "buffer" : 0,
            "byteLength" : 122388,
            "byteOffset" : 138480
        },
        {
            "buffer" : 0,
            "byteLength" : 122388,
            "byteOffset" : 260868
        },
        {
            "buffer" : 0,
            "byteLength" : 163184,
            "byteOffset" : 383256
        },
        {
            "buffer" : 0,
            "byteLength" : 81592,
            "byteOffset" : 546440
        },
        {
            "buffer" : 0,
            "byteLength" : 117612,
            "byteOffset" : 628032
        }
    ],
    "buffers" : [
        {
            "byteLength" : 745644,
            "uri" : "data:application/octet-stream;base64,"
        }
    ]
}
